<svg width="582" height="81" xmlns="http://www.w3.org/2000/svg"><g stroke="null"><path fill="#f12d23" d="M8.004 32.907h136.168s5.915 1.086 5.915 6.518-5.915 6.519-5.915 6.519H8.004s-6.478-.966-6.478-6.519 6.478-6.518 6.478-6.518z" class="st0"/><path d="M41.483 15.524H148.68s5.915-1.087 5.915-6.519-5.915-6.519-5.915-6.519H41.483s-6.478.966-6.478 6.519 6.478 6.519 6.478 6.519z" class="st1"/><path d="M499.478 1.52h-143.41v66.394l-9.536-.12-33.56-66.273-32.834 66.031-12.072.12V14.518l26.437-.08V1.521H181.996s-9.295.241-14.848 8.45-4.95 15.09-4.95 15.09-.603 5.914 3.019 12.433 10.502 10.14 14.244 10.502 26.678-.241 26.678-.241 8.933 1.69 8.933 10.381-8.933 10.02-8.933 10.02H42.777s-7.772.965-7.772 6.518 7.772 6.519 7.772 6.519H206.14s7.726 1.086 15.331-6.398 6.76-16.659 6.76-16.659 2.173-8.691-6.639-16.185-15.452-6.75-15.452-6.75l-23.66-.02s-7.726-1.43-7.726-10.12 7.243-10.503 7.243-10.503h72.671l.12 66.69h33.439l24.747-49.307 25.23 49.307h31.023V15.041h29.817s10.382 2.293 10.382 13.52c0 10.623-10.623 12.823-10.623 12.823h-13.52l21.849 39.863h15.693l-16.538-28.423s16.78-6.76 16.78-24.385c0-7.363-3.743-13.4-3.743-13.4h32.835l.362 66.208h13.158V15.161l31.265-.12 52.27 26.343h30.662L499.478 1.52z" class="st1"/><path fill="#f12d23" class="st0" d="M518.793 37.373v19.194l-19.194 9.589v15.091l80.276-39.863h-30.662l-18.831 9.872V41.95z"/></g></svg>